<svg width="266" height="266" viewBox="0 0 266 266" fill="none" xmlns="http://www.w3.org/2000/svg">
<circle opacity="0.8" cx="94.0156" cy="192.344" r="27.0156" fill="#0A275C"/>
<circle opacity="0.8" cx="135.578" cy="192.344" r="27.0156" fill="#1254E7"/>
<circle opacity="0.8" cx="177.141" cy="192.344" r="27.0156" fill="#35D8E5"/>
<path d="M119.853 140L94.1391 106.689H81.3228V138.907H68V58H93.7049C111.206 58 122.548 66.8492 122.548 82.4438C122.548 93.8846 117.049 101.443 107.371 104.766L132 134.862L119.853 140ZM81.3228 94.9591H94.7451C103.356 94.9591 109.054 90.8777 109.054 82.4438C109.054 74.1905 103.347 69.9465 94.7451 69.9465H81.3228V94.9591Z" fill="#0A275C"/>
<path d="M134 106.394C134 87.3368 148.251 73 168.411 73C190.027 73 204.712 88.99 202.839 111.115L147.301 111.042C148.052 121.576 157.317 129.199 169.044 129.199C176.699 129.199 183.386 127.087 189.746 119.96L199.817 126.058C192.361 135.178 181.838 140 169.044 140C147.925 140 134 125.525 134 106.394ZM190.126 101.297C189.158 90.5146 180.734 83.4243 168.628 83.4243C156.974 83.4243 148.197 90.7901 147.301 101.297H190.126Z" fill="#0A275C"/>
</svg>
