<svg width="830" height="291" viewBox="0 0 830 291" fill="none" xmlns="http://www.w3.org/2000/svg">
<g clip-path="url(#clip0)">
<path d="M134.927 224L98.7624 177.072H80.7374V222.461H62V108.48H98.1518C122.766 108.48 138.718 120.947 138.718 142.916C138.718 159.034 130.984 169.681 117.373 174.363L152.011 216.762L134.927 224ZM80.7374 160.547H99.6147C111.725 160.547 119.739 154.798 119.739 142.916C119.739 131.289 111.712 125.31 99.6147 125.31H80.7374V160.547Z" fill="#0A275C"/>
<path d="M150.688 177.403C150.688 151.007 170.723 131.149 199.064 131.149C229.453 131.149 250.099 153.296 247.466 183.942L169.387 183.84C170.443 198.431 183.469 208.989 199.954 208.989C210.716 208.989 220.117 206.063 229.059 196.192L243.217 204.639C232.735 217.271 217.941 223.949 199.954 223.949C170.265 223.949 150.688 203.901 150.688 177.403ZM229.593 170.343C228.232 155.408 216.389 145.588 199.369 145.588C182.985 145.588 170.646 155.79 169.387 170.343H229.593Z" fill="#0A275C"/>
<path d="M284.177 205.364H330.353V222.474H265.542V108.48H330.251V125.475H284.177V156.998L328.636 157.24V172.861H284.177V205.364V205.364Z" fill="#0A275C"/>
<path d="M391.857 223.937C363.007 223.937 343.379 203.036 343.379 177.505C343.379 152.037 363.019 131.149 391.857 131.149C407.147 131.149 420.911 135.436 436.417 151.757L423.76 161.514C412.133 149.378 402.898 146.669 393.103 146.669C374.557 146.669 361.874 160.293 361.874 177.301C361.874 194.386 374.557 208.01 393.103 208.01C403.051 208.01 412.286 205.148 424.434 192.414L437.269 202.591C421.381 219.471 407.287 223.949 391.857 223.937Z" fill="#0A275C"/>
<path d="M518.503 177.759C518.503 158.614 511.583 148.119 494.842 148.119C477.581 148.119 467.951 160.242 467.951 176.678V222.461H449.875V101H467.951V149.913C473.663 139.914 485.315 131.556 500.134 131.556C525.842 131.556 537.126 147.661 537.126 177.237V222.461H518.49V177.759H518.503Z" fill="#0A275C"/>
<path d="M601.237 223.631C570.861 223.631 551.551 202.845 551.551 177.555C551.551 152.508 570.962 131.403 601.339 131.403C631.614 131.403 651 152.508 651 177.555C651 202.845 631.614 223.631 601.237 223.631ZM601.339 146.885C582.296 146.885 570.046 160.764 570.046 177.339C570.046 194.233 582.296 208.01 601.237 208.01C620.382 208.01 632.67 194.233 632.67 177.339C632.67 161.183 620.585 146.885 601.339 146.885Z" fill="#0A275C"/>
</g>
<circle opacity="0.8" cx="686.5" cy="123.5" r="22.5" fill="#0A275C"/>
<ellipse opacity="0.8" cx="719" cy="123.5" rx="23" ry="22.5" fill="#1254E7"/>
<circle opacity="0.8" cx="753.5" cy="123.5" r="22.5" fill="#35D8E5"/>
<defs>
<clipPath id="clip0">
<rect width="589" height="123" fill="white" transform="translate(62 101)"/>
</clipPath>
</defs>
</svg>
